<svg xmlns="http://www.w3.org/2000/svg" width="39.624" height="71.343" viewBox="0 0 39.624 71.343">
  <g id="Shape_1_copy_1_" transform="translate(-285.572 -178.428)">
    <g id="Group_13" data-name="Group 13" transform="translate(285.572 178.428)">
      <path id="Path_9" data-name="Path 9" d="M871.756,563.392c1.466-1.24,2.955-2.513,4.375-3.846-2.613-2.58-4.079-4.365-4.079-7.59,0-5.16,3.8-6.789,6.29-6.789l12.547-.266a7.035,7.035,0,0,0,6.965-7.364v-.13s-11.453-.7-19.136-.7c-8.667,0-15.14,5.8-15.14,15.186,0,5.788,3.168,9.412,6.473,12.949C870.622,564.353,871.194,563.868,871.756,563.392Zm13.215,3.271c4.418-4.684,8.5-9.438,8.5-17.872H887.88a2.92,2.92,0,0,0-2.763,2.507c-.811,3.949-2.234,5.592-4.545,8.285h0c0,.007-.01.01-.013.017-.505.589-1.044,1.16-1.6,1.725l-.017.017c-.13.13-.253.259-.386.386a.048.048,0,0,0-.013-.01c-1.573,1.533-3.258,2.939-4.884,4.315l-1.28,1.087h0c-.1.083-.2.17-.3.253-.053.043-.106.09-.156.133-5.961,5-12.922,11.975-12.922,21.476,0,11.945,9.212,19.072,19.714,19.072a21.025,21.025,0,0,0,12.307-3.68,18.6,18.6,0,0,0,7.6-15.392C898.628,578.641,891.367,571.574,884.971,566.663Zm-6.25,33.019c-5.027,0-10.824-3.5-10.824-10.7,0-5.977,4.591-11.154,9.907-15.781.352-.306.711-.618,1.07-.934,5.785,4.535,10.668,9.757,10.668,16.715C889.542,598.907,881.257,599.682,878.721,599.682Z" transform="translate(-859 -536.71)" fill="#f7f7fa" fill-rule="evenodd"/>
    </g>
  </g>
</svg>
