<svg xmlns="http://www.w3.org/2000/svg" width="145.82" height="43.038" viewBox="0 0 145.82 43.038">
  <g id="Symbol_9_1" data-name="Symbol 9 – 1" transform="translate(-114.588 -262.417)">
    <g id="Shape_1_2_" transform="translate(114.588 262.417)">
      <g id="Group_6" data-name="Group 6">
        <path id="Path_5" data-name="Path 5" d="M351.07,787.95c-2.924,0-5.082.063-6.511.1l-.49.013v27.266h1.489a3.445,3.445,0,0,0,3.294-3.57v-5.988h3.087c5.828,0,9.595-3.63,9.595-9.252C361.534,791.077,357.721,787.95,351.07,787.95Zm1.056,13.215h-3.274v-8.6h2.934c3.157,0,4.969,1.549,4.969,4.246S354.98,801.165,352.126,801.165Zm22.13-6.614a6.257,6.257,0,0,0-5.179,2.724l-.2.253v-.353a2.018,2.018,0,0,0-1.928-2.092h-2.022v20.255h4.593V803.926c0-3.087,1.515-5,3.953-5,.39,0,.846.043,1.246.083l.3.03.25-4.379-.03,0A5.562,5.562,0,0,0,374.257,794.551Zm11.177-.043c-5.455,0-8.842,3.857-8.842,10.068V805.8c0,6.331,3.277,10.108,8.769,10.108,5.455,0,8.845-3.857,8.845-10.068v-1.219C394.2,798.287,390.925,794.508,385.433,794.508Zm4.18,11.21c0,3.86-1.459,5.9-4.216,5.9-2.678,0-4.216-2.1-4.216-5.778V804.7c0-3.86,1.459-5.9,4.216-5.9,2.678,0,4.216,2.1,4.216,5.778Zm35.232-11.21c-5.122,0-8.429,3.737-8.429,9.522v1.589c0,6.581,2.981,10.2,8.393,10.2a14.969,14.969,0,0,0,7.43-1.972l-.38-1.189a2.077,2.077,0,0,0-1.945-1.505,1.9,1.9,0,0,0-.526.073,14.4,14.4,0,0,1-3.9.629c-3.014,0-4.479-1.615-4.479-4.939V806.8h11.643q.02-.18.05-.39a19.9,19.9,0,0,0,.2-2.794C432.9,797.831,429.964,794.508,424.845,794.508ZM421,803.17v-.117c0-3,1.3-4.583,3.763-4.583,2.5,0,3.727,1.5,3.763,4.579v.117H421Zm24.961-8.662a6.863,6.863,0,0,0-5.482,2.768l-.2.223v-.323a2.02,2.02,0,0,0-1.932-2.095h-2.018v20.255h4.593V803.922c0-3.114,1.522-5.125,3.877-5.125,2.4,0,3.727,1.835,3.727,5.165v11.37h4.593V803.023C453.116,796.745,449.423,794.508,445.966,794.508Zm18.817,0c-5.122,0-8.429,3.737-8.429,9.522v1.589c0,6.581,2.981,10.2,8.393,10.2a14.969,14.969,0,0,0,7.43-1.972l-.38-1.189a2.077,2.077,0,0,0-1.945-1.505,1.894,1.894,0,0,0-.526.073,14.382,14.382,0,0,1-3.9.629c-3.014,0-4.479-1.615-4.479-4.939V806.8h11.643q.02-.18.05-.39a19.4,19.4,0,0,0,.2-2.794C472.836,797.831,469.9,794.508,464.783,794.508Zm-3.84,8.662v-.117c0-3,1.3-4.583,3.763-4.583,2.5,0,3.727,1.5,3.763,4.579v.117h-7.527Zm22.377-.19c-2.425-.5-3.327-1.146-3.327-2.395,0-1.232,1.082-1.908,3.047-1.908a13.655,13.655,0,0,1,3.773.653,1.734,1.734,0,0,0,.486.07,1.91,1.91,0,0,0,1.8-1.472l.363-1.362a12.4,12.4,0,0,0-6.867-2.015c-4.366,0-7.187,2.5-7.187,6.361,0,3.234,1.885,5.175,5.935,6.118,2.694.629,3.963,1.092,3.963,2.6,0,1.335-1.189,2.071-3.35,2.071a13.091,13.091,0,0,1-4.26-.813,1.707,1.707,0,0,0-.546-.09,1.871,1.871,0,0,0-1.762,1.405l-.45,1.529a13.39,13.39,0,0,0,7.28,2.1c4.809,0,7.677-2.468,7.677-6.6C489.89,805.824,487.925,803.959,483.32,802.98Z" transform="translate(-344.07 -787.95)" fill="#fff" fill-rule="evenodd"/>
      </g>
    </g>
    <g id="Shape_1_copy_2_" transform="translate(165.45 268.704)">
      <g id="Group_7" data-name="Group 7">
        <path id="Path_6" data-name="Path 6" d="M503.357,820.574c.756-.639,1.522-1.3,2.255-1.982-1.345-1.329-2.1-2.248-2.1-3.91a3.219,3.219,0,0,1,3.24-3.5l6.464-.137a3.627,3.627,0,0,0,3.59-3.793v-.067s-5.9-.36-9.858-.36a7.419,7.419,0,0,0-7.8,7.823c0,2.981,1.632,4.849,3.334,6.671C502.771,821.067,503.068,820.818,503.357,820.574Zm6.807,1.682c2.275-2.411,4.379-4.862,4.379-9.208h-2.881a1.5,1.5,0,0,0-1.422,1.292,8.177,8.177,0,0,1-2.341,4.27h0l-.007.007c-.26.3-.536.6-.826.889l-.007.007c-.067.067-.13.133-.2.2l-.007-.007c-.809.789-1.678,1.515-2.518,2.225-.226.193-.443.376-.659.56h0l-.153.13-.08.07c-3.071,2.574-6.657,6.168-6.657,11.063,0,6.155,4.746,9.828,10.158,9.828a10.849,10.849,0,0,0,6.341-1.9,9.58,9.58,0,0,0,3.917-7.93C517.2,828.427,513.462,824.787,510.165,822.256Zm-3.22,17.012a5.417,5.417,0,0,1-5.575-5.515c0-3.081,2.365-5.745,5.105-8.129.183-.16.366-.32.553-.48,2.981,2.338,5.5,5.026,5.5,8.612C512.523,838.871,508.253,839.268,506.944,839.268Z" transform="translate(-496.79 -806.83)" fill="#ddde15" fill-rule="evenodd"/>
      </g>
    </g>
  </g>
</svg>
